<svg xmlns="http://www.w3.org/2000/svg" width="220" height="110" viewBox="0 0 220 110">
  <defs>
    <linearGradient id="a" x1="0" y1="0" x2="1" y2="1">
      <stop offset="0%" stop-color="#ffb3b3"/>
      <stop offset="55%" stop-color="#f54545"/>
      <stop offset="100%" stop-color="#931c1c"/>
    </linearGradient>
  </defs>
  <path d="M34 55 L8 33 L8 77 Z" fill="#e23737" stroke="#290909" stroke-width="4" stroke-linejoin="round"/>
  <path d="M60 55 C72 22 152 18 194 52 C154 84 74 88 60 55 Z" fill="url(#a)" stroke="#290909" stroke-width="4"/>
  <path d="M96 28 L118 6 L136 30" fill="#ff6666" stroke="#290909" stroke-width="3" stroke-linejoin="round"/>
  <path d="M86 42 C116 28 166 30 188 47" fill="none" stroke="#ffd2d2" stroke-width="5" stroke-linecap="round" opacity="0.35"/>
  <path d="M78 68 C110 74 154 72 182 58" fill="none" stroke="#6a1313" stroke-width="4" stroke-linecap="round" opacity="0.45"/>
  <circle cx="172" cy="42" r="7" fill="#180707"/>
  <circle cx="174" cy="40" r="2" fill="#fff"/>
  <path d="M172 58 L148 60 L162 67" fill="#260909" opacity="0.9"/>
  <path d="M44 55 L18 38 M44 55 L18 72" stroke="#ffd38b" stroke-width="5" stroke-linecap="round" opacity="0.8"/>
</svg>
